<svg xmlns="http://www.w3.org/2000/svg" viewBox="0 0 1800 1100" width="1800" height="1100">
  <defs>
    <!-- Original Standing Golden Retriever silhouette - facing RIGHT -->
    <g id="golden">
      <path d="m61.16 189.35c3.25-2.14 4.17 0.12 5.56-4.72 1.15-3.98 1.75-10.78 1.82-14.92 0.09-5.76-1.01-12.52-1.56-18.24-8.31-2.75-14.27-7.12-20.92-12.38 1.47 7.72 2.86 14.37 3.42 22.23 0.39 5.45 0.62 11.67-0.04 17.07-0.26 2.1-1.25 7.64-2.8 9-1.82 1.59-6.34-0.17-9.58 3.17-2.03 2.09-3.75 11.28-1.47 11.28h17.89c2.71-0.48 2.58-4.5 3.32-6.58 0.73-2.02 2.55-4.73 4.36-5.91z"/>
      <path d="m207.16 164.43c-0.49-0.79-10.94-4.76-12.74-5.64-9.38-4.59-17.93-10.83-24.24-19.06l-13.79 3.98-0.37 0.11c0.51 1 1.58 2.15 2.46 3.26 0.49 0.62 0.89 1.11 1.06 1.3 3.51 4.06 9.19 9.24 13.65 12.23 3.74 2.51 12.64 6.28 14.53 10.2 1.42 2.95 1.61 12.98 0.27 15.9-0.81 1.78-5.26 1.61-7.1 2.42-3.99 1.75-5.22 6.63-4.59 10.59 0.27 1.63 1.38 1.97 2.84 2.11 4.53 0.44 15.82 0.96 19.41-1.52 4.64-3.21 7.62-16.13 8.46-21.6 0.49-3.15 1.08-7.41 0.87-10.54-0.05-0.68-0.46-3.31-0.72-3.74z"/>
      <path fill-rule="evenodd" d="m299.57 59.23c-2.82 8.52-14.65 40.09-36.36 45.53-0.2 0.05-0.41-0.07-0.47-0.26l-0.6-1.96-0.38-1.51c-3.51 5.34-8.66 10.33-14.97 11.53-0.21 0.04-0.41-0.1-0.44-0.3l-0.58-3.24c-2.29 3.05-15.72 7.41-18.61 6.41-0.46-0.16-3.03-7.65-3.6-8.96-1.94-4.41-2.69-8.45-6.27-11.67-0.36 0.41 0.58 2.66 0.95 3.3 8.16 14.11 2.94 24.11 6.2 37.93 2.16 9.15 6.41 10.56 11.61 16.93 4.9 6.03 3.54 16.16 3.8 23.59 0.22 6.45 1.75 17.11-0.94 23-0.79 1.74-2.3 3.21-4.1 3.89-3.11 1.17-12.21 1.33-15.71 1.07-2.32-0.17-4.36-0.27-4.72-2.89-0.58-4.2 0.23-8.44 4.19-10.6 1.52-0.83 5.42-1.23 5.69-2.69 0.45-2.49-0.85-8.75-1.56-11.38-3.69-13.89-12.6-13.51-23.83-18.42-17.25-7.53-30.89-21.44-37.25-39.25 0.35 6.34 4.34 12.4 7.24 17.93 0 0-45.23 14.08-61.52 11.96l-1.38-7.75-2.02-6.16c0.98 7.65 1.45 15.38 0.45 23.04q-0.11 0.85-0.25 1.7l-0.54 3.67c-0.04 0.28-0.39 0.36-0.54 0.12-0.36-0.55-0.88-1.36-1.44-2.17q-0.34-0.43-0.66-0.94c-0.46-0.63-0.9-1.16-1.21-1.45 0.09 5.34-0.18 11.72-2.09 17.11q0 0.01-0.01 0.05-0.01 0.01-0.01 0.03c-0.26 0.72-2.44 6.73-4.57 8.16-0.12 0.07-0.27-0.01-0.26-0.14 0.03-0.98 0.12-4.12-0.11-6.32l-0.57-2.15c-0.11 2.3-0.71 4.59-1.41 6.76-1.38 4.26-7.52 17.59-11.03 19.8-5.01 3.17-14.2 0.87-19.93 1.02-2.99-3.36-0.51-10.2 2.86-12.37 3.4-2.2 5.22 0.14 6.72-5.08 2.58-8.97 2.12-31.37-0.92-40.27-0.61-1.78-0.87-3.23-1.97-4.76-0.32 2.47 0.1 4.04 0.16 6.18 0.02 0.63 0.29 1.03-0.55 0.94-1.45-0.16-5.36-2.29-6.79-3.11-9.95-5.69-20.47-15.54-22.36-27.31l-1.32 6.47c-0.51 0.66-0.55 0.15-0.9-0.26-8.98-10.21-7.89-50.53-7.31-64.25 0.14-3.16 0.66-6.59 0.72-9.79-0.85-2.76-7.24 0.32-9.25 0.51-2.07 0.19-6.79-0.03-8.48-1.28-0.23-0.17-0.37-0.97-0.67-1-0.34-0.03-1.23 1.29-3.15 0.45-4.5-1.96 1.54-10.31 4.47-11.7-2.55-2.27-6.5-3.09-8.2-6.25-1.4-2.6-2.81-10.27-2.46-13.16 0.2-1.66 1.23-2.74 2.75-3.34 4.02-1.58 13.97-0.87 16.62-3.93 0.7-0.8 1.06-2.17 1.8-3.15 5.7-7.57 19.06-8.01 27.4-5.37 7.47 2.38 15.38 9.87 20.34 15.81 2.94 3.52 7.98 9.62 7.22 14.43-0.52 3.29-8.03 8.43-10.64 10.67-3.42 2.93-6.79 8.75-12.06 5.21-6.63-4.44-3.45-24.27-2.12-31.18 0.05-0.27 0.4-1.59-0.28-1.04-5.07 7.66-7.44 32.38 3.41 35.77 7.5 2.35 13.38-8.48 18.48-12.37 0.36-0.28 2.44-1.57 2.64-1.52 8.17 13.58 20.51 23.39 36.08 27.13 10.52 2.53 21.41 0.88 32.09 0.62 19-0.46 38.09-0.64 57.14-1.05 38.1-1.28 94.52-6.66 94.96-6.7l1.86-0.18c1.05-0.1 1.85 0.91 1.52 1.91zm-292.43-42.79c-0.32 0.94-1.16 1.84-2.02 2.33-1.03 0.57-2.35 0.38-3.47 0.27-0.31-0.04-0.58 0.29-0.58 0.58 0 0.34 0.27 0.55 0.58 0.58 1.38 0.15 2.91 0.27 4.14-0.48 1.1-0.66 2.06-1.75 2.48-2.97 0.24-0.71-0.89-1.01-1.13-0.31zm21.02 15.73c-9.51 3.65-13.71 9.13-13.71 9.13 5.63-0.08 12.35-3.18 13.71-9.13zm3.37-18.1l-2.63-2.45v0.01q-0.2-0.23-0.44-0.43c-0.6-0.48-1.33-0.7-2.09-0.55-0.81 0.17-1.52 0.75-2.06 1.35-0.32 0.35-0.58 0.71-0.62 1.2-0.03 0.48 0.16 0.96 0.54 1.27q0.01 0.01 0.03 0.02 0.04 0.03 0.08 0.06c1.09 0.76 2.5 0.84 3.78 0.7q1.48-0.15 2.97-0.27c0.44-0.04 0.73-0.6 0.44-0.91z"/>
    </g>
  </defs>

  <!-- Sparse pattern matching reference - fewer dogs, more space -->
  <!-- Only ~12 dogs with generous spacing like the reference -->

  <!-- Dog 1: Top left, tilted -15° -->
  <g transform="translate(80, 60) rotate(-15) scale(0.42)" fill="#9a852c">
    <use href="#golden"/>
  </g>

  <!-- Dog 2: Top center, steep -50° -->
  <g transform="translate(700, 40) rotate(-50) scale(0.38)" fill="#9a852c">
    <use href="#golden"/>
  </g>

  <!-- Dog 3: Top right, tilted -20° -->
  <g transform="translate(1400, 80) rotate(-20) scale(0.40)" fill="#9a852c">
    <use href="#golden"/>
  </g>

  <!-- Dog 4: Middle left, facing LEFT, +15° -->
  <g transform="translate(200, 380) scale(-0.40, 0.40) rotate(-15)" fill="#9a852c">
    <use href="#golden"/>
  </g>

  <!-- Dog 5: Center, upright 0° -->
  <g transform="translate(750, 320) rotate(0) scale(0.42)" fill="#9a852c">
    <use href="#golden"/>
  </g>

  <!-- Dog 6: Center-right, horizontal -70° (running) -->
  <g transform="translate(1150, 400) rotate(-70) scale(0.38)" fill="#9a852c">
    <use href="#golden"/>
  </g>

  <!-- Dog 7: Right, facing LEFT, +25° -->
  <g transform="translate(1550, 300) scale(-0.42, 0.42) rotate(-25)" fill="#9a852c">
    <use href="#golden"/>
  </g>

  <!-- Dog 8: Lower left, facing LEFT -->
  <g transform="translate(120, 700) scale(-0.38, 0.38) rotate(-10)" fill="#9a852c">
    <use href="#golden"/>
  </g>

  <!-- Dog 9: Lower center-left, -45° -->
  <g transform="translate(550, 750) rotate(-45) scale(0.40)" fill="#9a852c">
    <use href="#golden"/>
  </g>

  <!-- Dog 10: Lower center, horizontal -65° -->
  <g transform="translate(1000, 680) rotate(-65) scale(0.38)" fill="#9a852c">
    <use href="#golden"/>
  </g>

  <!-- Dog 11: Lower right, upright -->
  <g transform="translate(1450, 720) rotate(0) scale(0.42)" fill="#9a852c">
    <use href="#golden"/>
  </g>

  <!-- Dog 12: Bottom, +35° -->
  <g transform="translate(350, 980) rotate(35) scale(0.38)" fill="#9a852c">
    <use href="#golden"/>
  </g>

  <!-- Dog 13: Bottom right, -15° -->
  <g transform="translate(1200, 950) rotate(-15) scale(0.40)" fill="#9a852c">
    <use href="#golden"/>
  </g>

</svg>
